<svg width="2000" height="2000" viewBox="0 0 2000 2000" fill="none" xmlns="http://www.w3.org/2000/svg">
<g clip-path="url(#clip0_924_19)">
<path d="M967.57 1678C947.57 1667.33 934.904 1656.33 929.57 1645C924.237 1633.67 921.57 1624 921.57 1616C921.57 1598 927.904 1574 940.57 1544C953.904 1513.33 971.57 1478.33 993.57 1439C1015.57 1399.67 1040.57 1358.67 1068.57 1316C1047.9 1314.67 1028.24 1313.67 1009.57 1313C990.904 1312.33 966.904 1312 937.57 1312H921.57C930.904 1288 945.57 1271.33 965.57 1262C986.237 1252 1010.24 1247 1037.57 1247C1048.9 1247 1060.57 1247.67 1072.57 1249C1085.24 1250.33 1098.24 1251.67 1111.57 1253C1144.9 1205 1177.57 1159.67 1209.57 1117C1242.24 1074.33 1272.9 1036 1301.57 1002C1330.9 967.333 1356.9 939 1379.57 917C1411.57 885 1434.9 869 1449.57 869C1458.9 869 1469.24 872.667 1480.57 880C1492.57 887.333 1504.9 896.667 1517.57 908C1510.9 913.333 1502.24 927 1491.57 949C1481.57 971 1470.57 999 1458.57 1033C1447.24 1066.33 1435.57 1103 1423.57 1143C1412.24 1183 1401.9 1223.67 1392.57 1265C1383.24 1306.33 1375.57 1346 1369.57 1384C1364.24 1421.33 1361.57 1454.33 1361.57 1483C1361.57 1509.67 1364.24 1529.67 1369.57 1543C1374.9 1555.67 1383.9 1562 1396.57 1562C1411.9 1562 1430.9 1550.33 1453.57 1527C1476.24 1503.67 1501.57 1465.67 1529.57 1413L1547.57 1432C1526.9 1486.67 1499.9 1531.67 1466.57 1567C1433.9 1602.33 1398.9 1620 1361.57 1620C1329.57 1620 1306.9 1606.33 1293.57 1579C1280.24 1551 1273.57 1513 1273.57 1465C1273.57 1449.67 1274.57 1432.33 1276.57 1413C1278.57 1393.67 1281.9 1369.67 1286.57 1341C1257.24 1336.33 1231.24 1332.67 1208.57 1330C1185.9 1327.33 1164.24 1324.67 1143.57 1322C1111.57 1378.67 1080.57 1437.33 1050.57 1498C1020.57 1558.67 992.904 1618.67 967.57 1678ZM1296.57 1292C1305.24 1252.67 1315.24 1213 1326.57 1173C1338.57 1132.33 1350.9 1093.67 1363.57 1057C1376.9 1019.67 1389.9 986.333 1402.57 957C1382.57 973 1360.24 996 1335.57 1026C1310.9 1056 1284.9 1091.33 1257.57 1132C1230.9 1172.67 1203.57 1217 1175.57 1265C1195.57 1269 1215.57 1273.33 1235.57 1278C1255.57 1282.67 1275.9 1287.33 1296.57 1292Z" fill="#A1B2C3"/>
<path d="M632.438 1209C625.771 1209 617.104 1208 606.438 1206C595.771 1204 584.771 1200 573.438 1194C562.771 1188.67 553.771 1180 546.438 1168C539.104 1156 535.438 1140 535.438 1120C535.438 1103.33 538.771 1081.67 545.438 1055C552.104 1027.67 563.438 988 579.438 936C591.438 896.667 603.104 858 614.438 820C626.438 781.333 636.104 741.333 643.437 700C651.438 658.667 655.438 614.667 655.438 568C655.438 540.667 653.771 517.667 650.437 499C647.104 480.333 640.771 466.333 631.438 457C622.771 447 610.438 442 594.438 442C578.438 442 564.438 446.333 552.438 455C540.438 463.667 530.438 475.333 522.438 490C514.438 504 508.438 519.667 504.438 537C500.438 554.333 498.438 571.667 498.438 589C498.438 618.333 503.438 642.667 513.438 662C480.771 662 457.104 654.333 442.438 639C427.771 623.667 420.438 604.667 420.438 582C420.438 562 425.438 541.333 435.438 520C445.438 498.667 459.104 479.333 476.438 462C494.438 444 515.104 429.667 538.438 419C561.771 407.667 586.771 402 613.438 402C658.771 402 693.104 418.667 716.438 452C740.438 485.333 752.438 532.667 752.438 594C752.438 640 746.104 688 733.438 738C721.438 787.333 706.104 841.333 687.438 900C680.771 921.333 672.771 945 663.438 971C654.771 996.333 646.771 1022.67 639.438 1050C632.771 1076.67 629.438 1103.33 629.438 1130C629.438 1142.67 630.771 1151.33 633.438 1156C636.771 1161.33 642.771 1164 651.438 1164C669.438 1164 688.438 1156.33 708.438 1141C729.104 1125.67 749.771 1105 770.438 1079C791.104 1053 810.771 1024 829.438 992C848.771 960 866.438 927.333 882.438 894C898.438 860 911.771 828 922.438 798C933.104 767.333 940.104 740.667 943.438 718C968.771 718 988.438 725 1002.44 739C1016.44 753 1023.44 766.333 1023.44 779C1023.44 785.667 1020.44 797 1014.44 813C1009.1 829 999.771 852.667 986.438 884C975.771 909.333 964.771 936.333 953.438 965C942.104 993 932.438 1021 924.438 1049C917.104 1076.33 913.438 1102 913.438 1126C913.438 1139.33 915.104 1149 918.438 1155C922.438 1161 929.438 1164 939.438 1164C958.104 1164 979.438 1154.67 1003.44 1136C1028.1 1118 1053.44 1093.33 1079.44 1062C1105.44 1030 1130.77 994.333 1155.44 955C1180.1 915 1202.44 873.667 1222.44 831C1242.44 788.333 1258.1 746.333 1269.44 705C1281.44 663.667 1287.44 626 1287.44 592C1287.44 555.333 1280.77 529.333 1267.44 514C1254.77 498.667 1238.77 487.667 1219.44 481C1231.44 461.667 1244.1 447.667 1257.44 439C1271.44 429.667 1283.77 425 1294.44 425C1309.77 425 1325.44 435 1341.44 455C1358.1 474.333 1366.44 505 1366.44 547C1366.44 582.333 1359.44 623 1345.44 669C1332.1 715 1313.44 763 1289.44 813C1266.1 862.333 1239.1 910.667 1208.44 958C1178.44 1004.67 1146.1 1047 1111.44 1085C1077.44 1123 1043.1 1153 1008.44 1175C973.771 1197.67 940.771 1209 909.438 1209C892.104 1209 876.438 1205.33 862.438 1198C849.104 1191.33 838.438 1181.33 830.438 1168C823.104 1155.33 819.438 1140.33 819.438 1123C819.438 1115 820.438 1106.67 822.438 1098C824.438 1089.33 826.771 1080.67 829.438 1072C796.771 1113.33 763.771 1146.33 730.438 1171C697.771 1196.33 665.104 1209 632.438 1209Z" fill="#A1B2C3"/>
<circle cx="1000" cy="1000" r="825" stroke="#A1B2C3" stroke-width="50"/>
</g>
<defs>
<clipPath id="clip0_924_19">
<rect width="2000" height="2000" fill="white"/>
</clipPath>
</defs>
</svg>
